<?xml version="1.0" encoding="UTF-8"?>
<svg xmlns="http://www.w3.org/2000/svg" version="1.1" viewBox="0 0 892.5 194">
  <defs>
    <style>
      .cls-1 {
        fill: #fff;
      }
    </style>
  </defs>
  <!-- Generator: Adobe Illustrator 28.7.1, SVG Export Plug-In . SVG Version: 1.2.0 Build 142)  -->
  <g>
    <g id="Calque_1">
      <g>
        <path class="cls-1" d="M558.72,140.79c-1.82,1.43-4.13,2.56-6.88,3.36-2.86.84-5.79,1.26-8.7,1.26-6.29,0-10.92-2.32-14.14-7.1-3.47-5.14-5.24-12.89-5.24-23.02V30.79h-22.88v84.04c0,15.65,3.46,28.18,10.27,37.24,7.05,9.37,16.79,14.12,28.94,14.12,5.16,0,10.22-.76,15.05-2.26,4.86-1.51,9.12-3.56,12.67-6.1l2.29-1.64-7.8-18.22-3.59,2.81Z"/>
        <path class="cls-1" d="M127.48,98.79c-4.21-2.64-9.47-4.96-15.63-6.91-5.93-1.87-12.92-3.78-20.82-5.68-5.34-1.22-9.93-2.42-13.65-3.55-3.54-1.08-6.46-2.3-8.69-3.63-1.92-1.14-3.29-2.45-4.07-3.9-.81-1.5-1.22-3.61-1.22-6.28,0-3.28.64-6.14,1.91-8.49,1.3-2.41,3.04-4.33,5.32-5.9,2.35-1.61,5.14-2.82,8.29-3.57,3.3-.79,6.95-1.19,10.86-1.19,6.56,0,12.96,1.11,19,3.29,5.92,2.14,11.01,5.39,15.13,9.65l2.72,2.82,12.16-14.74-2.11-2.25c-5-5.33-11.63-9.67-19.7-12.88-8-3.18-17-4.8-26.74-4.8-6.52,0-12.76.83-18.57,2.46-5.91,1.66-11.16,4.17-15.6,7.44-4.54,3.35-8.19,7.64-10.84,12.77-2.66,5.15-4.01,11.11-4.01,17.72,0,5.36.96,9.95,2.84,13.62,1.91,3.73,4.83,6.89,8.67,9.39,3.57,2.33,8.12,4.42,13.53,6.23,5.2,1.74,11.42,3.49,18.53,5.23,5.94,1.37,11.26,2.73,15.81,4.04,4.31,1.24,7.9,2.67,10.68,4.23,2.56,1.44,4.48,3.09,5.73,4.89,1.14,1.66,1.72,3.85,1.72,6.54,0,6.13-2.36,10.72-7.22,14.03-5.22,3.55-12.45,5.34-21.49,5.34-7.61,0-14.84-1.33-21.47-3.95-6.72-2.66-13.44-6.72-19.96-12.06l-2.98-2.43-11.08,16.44,2.25,2.04c6.85,6.2,15.11,11,24.56,14.26,9.36,3.23,19.09,4.86,28.92,4.86,15.19,0,27.53-3.54,36.68-10.53,9.43-7.2,14.22-17.09,14.22-29.4,0-5.72-1.17-10.69-3.49-14.8-2.31-4.07-5.73-7.55-10.17-10.35Z"/>
        <path class="cls-1" d="M261.25,50.81c-5.66-6.06-12.46-10.96-20.23-14.56-7.83-3.62-16.45-5.46-25.63-5.46s-17.78,1.84-25.53,5.46c-7.68,3.6-14.45,8.49-20.1,14.56-5.65,6.05-10.12,13.18-13.3,21.17-3.19,8.01-4.8,16.61-4.8,25.58s1.57,17.32,4.67,25.31c3.1,8,7.54,15.13,13.19,21.2,5.66,6.07,12.43,10.93,20.13,14.45,7.74,3.54,16.4,5.34,25.74,5.34s18.02-1.79,25.84-5.33c7.78-3.52,14.6-8.39,20.26-14.46,5.64-6.06,10.08-13.19,13.19-21.2,3.1-8,4.67-16.52,4.67-25.31s-1.62-17.57-4.8-25.58c-3.18-7.99-7.65-15.12-13.3-21.17ZM252.98,115.18c-2.16,5.48-5.16,10.35-8.9,14.45-3.73,4.08-8.12,7.35-13.05,9.71-4.87,2.33-10.14,3.51-15.65,3.51s-10.81-1.15-15.69-3.41c-4.91-2.27-9.24-5.48-12.87-9.55-3.68-4.11-6.64-8.94-8.81-14.37-2.16-5.39-3.25-11.36-3.25-17.73s1.1-12.43,3.26-17.99c2.17-5.57,5.17-10.52,8.91-14.69,3.73-4.15,8.08-7.45,12.93-9.81,4.78-2.32,10-3.5,15.51-3.5s10.78,1.18,15.65,3.51c4.93,2.36,9.32,5.62,13.05,9.71,3.74,4.09,6.73,8.99,8.9,14.55,2.16,5.56,3.26,11.53,3.26,17.76s-1.1,12.38-3.26,17.86Z"/>
        <path class="cls-1" d="M478.11,28.38c-4.82-1.5-9.89-2.26-15.05-2.26-12.16,0-21.9,4.75-28.94,14.12-6.78,9.02-10.24,21.47-10.28,37.01h-16.81v19.61h16.81v64.67h22.88v-64.67h33.62v-19.61h-33.62v-.23c0-10.13,1.76-17.87,5.24-23.02,3.23-4.78,7.85-7.1,14.14-7.1,2.92,0,5.85.42,8.71,1.26,2.74.8,5.05,1.93,6.87,3.36l3.59,2.81,7.8-18.22-2.29-1.64c-3.55-2.54-7.81-4.59-12.67-6.1Z"/>
        <path class="cls-1" d="M672.35,50.81c-5.66-6.06-12.46-10.96-20.23-14.56-7.83-3.62-16.45-5.46-25.63-5.46s-17.78,1.84-25.53,5.46c-7.68,3.6-14.45,8.49-20.1,14.56-5.64,6.05-10.12,13.17-13.3,21.17-3.18,8-4.8,16.61-4.8,25.58s1.57,17.32,4.67,25.31c3.1,8.01,7.54,15.14,13.2,21.2,5.66,6.07,12.43,10.93,20.13,14.45,7.74,3.54,16.4,5.34,25.74,5.34s18.02-1.79,25.84-5.33c7.79-3.53,14.6-8.39,20.26-14.46,5.65-6.05,10.09-13.19,13.2-21.2,3.1-8,4.67-16.51,4.67-25.31s-1.61-17.57-4.8-25.58c-3.18-8-7.66-15.12-13.3-21.17ZM664.08,115.18c-2.16,5.49-5.16,10.35-8.9,14.45-3.73,4.08-8.12,7.35-13.05,9.71-4.87,2.33-10.14,3.51-15.65,3.51s-10.81-1.15-15.69-3.41c-4.91-2.27-9.24-5.48-12.87-9.55-3.68-4.12-6.64-8.95-8.81-14.37-2.16-5.39-3.25-11.36-3.25-17.73s1.1-12.43,3.26-17.99c2.17-5.57,5.17-10.51,8.92-14.69,3.72-4.15,8.07-7.45,12.93-9.81,4.78-2.32,10-3.5,15.51-3.5s10.78,1.18,15.65,3.51c4.93,2.36,9.32,5.62,13.05,9.71,3.74,4.09,6.73,8.99,8.9,14.55,2.16,5.56,3.26,11.53,3.26,17.76s-1.1,12.38-3.26,17.86Z"/>
        <rect class="cls-1" x="336.56" y="14" width="16.34" height="165.75"/>
        <path class="cls-1" d="M846.1,39.57l-17.91,97.32c-1.16,6.13-3.55,6.13-4.57,6.13-1.58,0-2.68-.32-3.28-.97-.44-.47-1.26-1.75-1.76-5.08l-13.83-84.66c-.76-5.69-3.23-10.42-7.35-14.06-4.13-3.64-8.95-5.49-14.34-5.49s-10.23,1.91-14.28,5.67c-3.96,3.67-6.44,8.3-7.39,13.78l-13.85,84.83c-.54,3.72-1.39,4.87-1.64,5.14-.5.53-1.73.83-3.39.83-.89,0-3.25,0-4.58-6.14l-4.14-24.13-.22.02c.04-.29.07-.58.07-.88,0-2.24-1.26-4.18-3.11-5.16.87-1.01,1.4-2.34,1.4-3.79,0-2.49-1.55-4.6-3.71-5.42,1.07-1.06,1.73-2.52,1.73-4.14,0-3.22-2.61-5.84-5.84-5.84s-5.84,2.61-5.84,5.84c0,.5.07.98.19,1.44-.38-.2-.79-.36-1.21-.47.65-.94,1.03-2.08,1.03-3.3,0-3.22-2.61-5.84-5.84-5.84s-5.84,2.61-5.84,5.84c0,2.7,1.84,4.97,4.33,5.63-.65.94-1.03,2.08-1.03,3.3,0,1.82.84,3.45,2.14,4.52-.91,1.03-1.46,2.37-1.46,3.85,0,1.16.34,2.23.92,3.14-.15.52-.24,1.07-.24,1.65s.08,1.07.22,1.57h-.08s4.84,26.17,4.84,26.17c1.27,6.59,4.4,12.08,9.28,16.31,4.92,4.27,10.64,6.44,16.99,6.44,9.77,0,22.08-4,25.31-23.09l13.83-83.72c.58-3.14,1.4-3.7,1.42-3.71,0,0,.83.57,1.4,3.64l13.84,83.79c3.21,19.07,15.54,23.07,25.31,23.07,6.17,0,11.79-2.12,16.72-6.3,4.9-4.16,8.03-9.7,9.3-16.44l19.73-100.43-23.27-.88ZM721.55,99.73c-.02-.41-.08-.81-.17-1.19.27.14.55.26.84.36-.25.26-.47.53-.66.83ZM720.61,103.17c0,.07,0,.15.01.22-.05-.01-.09-.02-.14-.04.04-.06.09-.12.13-.18Z"/>
        <circle class="cls-1" cx="703.09" cy="44.35" r="5.84"/>
        <circle class="cls-1" cx="717.09" cy="51.35" r="5.84"/>
        <path class="cls-1" d="M711.26,60.69c0-3.22-2.61-5.84-5.84-5.84s-5.84,2.61-5.84,5.84,2.61,5.84,5.84,5.84,5.84-2.61,5.84-5.84Z"/>
        <path class="cls-1" d="M715.93,81.7c0,3.22,2.61,5.84,5.84,5.84s5.84-2.61,5.84-5.84-2.61-5.84-5.84-5.84-5.84,2.61-5.84,5.84Z"/>
        <path class="cls-1" d="M713.59,67.69c0,3.22,2.61,5.84,5.84,5.84s5.84-2.61,5.84-5.84-2.61-5.84-5.84-5.84-5.84,2.61-5.84,5.84Z"/>
        <circle class="cls-1" cx="710.09" cy="77.03" r="5.84"/>
      </g>
    </g>
  </g>
</svg>